<?xml version="1.0" encoding="utf-8"?>
<!-- Generator: Adobe Illustrator 16.0.0, SVG Export Plug-In . SVG Version: 6.00 Build 0)  -->
<!DOCTYPE svg PUBLIC "-//W3C//DTD SVG 1.1//EN" "http://www.w3.org/Graphics/SVG/1.1/DTD/svg11.dtd">
<svg version="1.1" id="图层_1" xmlns="http://www.w3.org/2000/svg" xmlns:xlink="http://www.w3.org/1999/xlink" x="0px" y="0px"
	 width="30px" height="38px" viewBox="0 0 30 38" enable-background="new 0 0 30 38" xml:space="preserve">
<g>
	<path fill="#D3EFFF" d="M26,14.909C26,8.885,21.076,4,15,4S4,8.885,4,14.909c0,1.989,0.546,3.848,1.483,5.454H5.472L14.998,34
		l9.532-13.637h-0.013C25.457,18.757,26,16.898,26,14.909 M15,20.362c-3.036,0-5.499-2.442-5.499-5.455
		c0-3.011,2.463-5.453,5.499-5.453c3.041,0,5.5,2.442,5.5,5.453C20.5,17.92,18.041,20.362,15,20.362"/>
</g>
</svg>
