<?xml version="1.0" encoding="utf-8"?>
<!-- Generator: Adobe Illustrator 15.0.0, SVG Export Plug-In . SVG Version: 6.00 Build 0)  -->
<!DOCTYPE svg PUBLIC "-//W3C//DTD SVG 1.1//EN" "http://www.w3.org/Graphics/SVG/1.1/DTD/svg11.dtd">
<svg version="1.1" id="图层_1" xmlns="http://www.w3.org/2000/svg" xmlns:xlink="http://www.w3.org/1999/xlink" x="0px" y="0px"
	 width="70px" height="70px" viewBox="0 0 70 70" enable-background="new 0 0 70 70" xml:space="preserve">
<g>
	<path fill="#5FC9ED" d="M66,61.014C66,63.768,63.762,66,61,66H9c-2.761,0-5-2.232-5-4.986V9.146c0-2.755,2.239-4.987,5-4.987h52
		c2.762,0,5,2.232,5,4.987V61.014z"/>
	<path fill="#6ECFF2" d="M63.961,5.133C63.188,4.643,61.983,4,61,4H9C6.238,4,4,6.233,4,8.987v51.867
		c0,1.276,0.495,2.428,1.285,3.31C18.171,36.335,49.12,14.604,63.961,5.133z"/>
	<g>
		<g>
			<g>
				<path fill="#FFFFFF" d="M35.058,10.626c-4.472,0-8.072,1.202-10.801,3.591c-2.712,2.405-4.354,5.846-4.907,10.356l6.113,0.718
					c0.536-3.373,1.641-5.829,3.35-7.416c1.691-1.587,3.818-2.373,6.346-2.373c2.629,0,4.84,0.888,6.648,2.623
					c1.808,1.737,2.713,3.775,2.713,6.081c0,1.27-0.318,2.456-0.921,3.524c-0.617,1.068-1.957,2.523-4.019,4.326
					c-2.062,1.819-3.483,3.189-4.271,4.143c-1.072,1.302-1.859,2.589-2.345,3.86c-0.653,1.684-0.988,3.706-0.988,6.026
					c0,0.402,0.016,0.988,0.033,1.788h5.711c0.05-2.37,0.2-4.092,0.503-5.146c0.284-1.051,0.736-1.987,1.321-2.803
					c0.587-0.82,1.857-2.072,3.804-3.795c2.879-2.554,4.821-4.71,5.808-6.497c0.99-1.769,1.493-3.724,1.493-5.828
					c0-3.641-1.408-6.766-4.237-9.337C43.564,11.911,39.799,10.626,35.058,10.626 M35.008,52.251c-2.01,0-3.65,1.619-3.65,3.642
					c0,2.006,1.625,3.642,3.65,3.642c2.01,0,3.651-1.62,3.651-3.642C38.643,53.89,37.018,52.251,35.008,52.251"/>
			</g>
		</g>
	</g>
</g>
</svg>
