<?xml version="1.0" encoding="utf-8"?>
<!-- Generator: Adobe Illustrator 15.0.0, SVG Export Plug-In . SVG Version: 6.00 Build 0)  -->
<!DOCTYPE svg PUBLIC "-//W3C//DTD SVG 1.1//EN" "http://www.w3.org/Graphics/SVG/1.1/DTD/svg11.dtd">
<svg version="1.1" id="图层_1" xmlns="http://www.w3.org/2000/svg" xmlns:xlink="http://www.w3.org/1999/xlink" x="0px" y="0px"
	 width="46px" height="44px" viewBox="0 0 46 44" enable-background="new 0 0 46 44" xml:space="preserve">
<g>
	<defs>
		<rect id="SVGID_1_" x="4" y="4" width="38" height="36"/>
	</defs>
	<clipPath id="SVGID_2_">
		<use xlink:href="#SVGID_1_"  overflow="visible"/>
	</clipPath>
	<path clip-path="url(#SVGID_2_)" fill="#999999" d="M17.246,10.3h11.726V7.15H17.246V10.3z M34.834,10.3h3.04
		c0.869,0,1.52,0.675,1.52,1.575v23.4c0,0.899-0.65,1.574-1.52,1.574H8.343c-0.869,0-1.52-0.675-1.52-1.574v-23.4
		c0-0.9,0.651-1.575,1.52-1.575h3.04V7.15h-3.04C5.954,7.15,4,9.175,4,11.875v23.4C4,37.75,5.954,40,8.343,40h29.314
		C40.046,40,42,37.975,42,35.275v-23.4C42,9.4,40.046,7.15,37.657,7.15h-3.04v3.15H34.834z M12.903,5.575
		c0-0.9,0.651-1.575,1.52-1.575c0.868,0,1.52,0.675,1.52,1.575v6.3c0,0.9-0.652,1.575-1.52,1.575c-0.869,0-1.52-0.675-1.52-1.575
		V5.575z M30.492,5.575c0-0.9,0.65-1.575,1.519-1.575c0.869,0,1.521,0.675,1.521,1.575v6.3c0,0.9-0.651,1.575-1.521,1.575
		c-0.868,0-1.519-0.675-1.519-1.575V5.575z M12.903,19.525c0-0.9,0.651-1.575,1.52-1.575h17.588c0.869,0,1.521,0.675,1.521,1.575
		S32.88,21.1,32.011,21.1H14.423C13.554,21.1,12.903,20.425,12.903,19.525 M12.903,27.4c0-0.9,0.651-1.575,1.52-1.575h17.588
		c0.869,0,1.521,0.675,1.521,1.575c0,0.899-0.651,1.574-1.521,1.574H14.423C13.554,28.975,12.903,28.3,12.903,27.4"/>
</g>
</svg>
