<?xml version="1.0" encoding="utf-8"?>
<!-- Generator: Adobe Illustrator 15.0.0, SVG Export Plug-In . SVG Version: 6.00 Build 0)  -->
<!DOCTYPE svg PUBLIC "-//W3C//DTD SVG 1.1//EN" "http://www.w3.org/Graphics/SVG/1.1/DTD/svg11.dtd">
<svg version="1.1" id="图层_1" xmlns="http://www.w3.org/2000/svg" xmlns:xlink="http://www.w3.org/1999/xlink" x="0px" y="0px"
	 width="92px" height="92px" viewBox="0 0 92 92" enable-background="new 0 0 92 92" xml:space="preserve">
<g>
	<path fill="#3896F9" d="M88,76c0,6.627-5.373,12-12,12H16C9.373,88,4,82.627,4,76V16C4,9.372,9.373,4,16,4h60
		c6.627,0,12,5.372,12,12V76z"/>
	<g>
		<path fill="#FFFFFF" d="M59.188,42.167c0,4.487-3.638,9.125-8.125,9.125l-18.875-1c-4.487,0-8.125-3.637-8.125-8.125l0,0
			c0-4.487,3.638-8.125,8.125-8.125l18.875-1C55.55,33.042,59.188,37.679,59.188,42.167L59.188,42.167z"/>
		<path fill="#FFFFFF" d="M28.938,68.916h10.939l-1.939-12c-0.716-2.568-2.239-5-5-5h-4V68.916z"/>
		<path fill="#FFFFFF" d="M59.875,28.229c0,0-6.809,4.707-8.813,4.813s0,18.25,0,18.25l8.813,4.813V28.229z"/>
		<path fill="#FFFFFF" d="M65.938,23.083c-0.999,0.063-3.917,3.561-3.917,3.561v30.898c0,0,2.229,3.238,3.917,3.561
			c1.104,0,2-0.895,2-2v-34.02C67.938,23.979,66.937,23.021,65.938,23.083z"/>
	</g>
</g>
</svg>
