<?xml version="1.0" encoding="utf-8"?>
<!-- Generator: Adobe Illustrator 15.0.0, SVG Export Plug-In . SVG Version: 6.00 Build 0)  -->
<!DOCTYPE svg PUBLIC "-//W3C//DTD SVG 1.1//EN" "http://www.w3.org/Graphics/SVG/1.1/DTD/svg11.dtd">
<svg version="1.1" id="图层_1" xmlns="http://www.w3.org/2000/svg" xmlns:xlink="http://www.w3.org/1999/xlink" x="0px" y="0px"
	 width="26px" height="25px" viewBox="0 0 26 25" enable-background="new 0 0 26 25" xml:space="preserve">
<g>
	<path fill="#38acff" d="M12.192,12.531c0.224,0.171,0.496,0.37,0.784,0.328c0.289,0.056,0.592-0.129,0.815-0.328l6.945-6.164
		c0.352-0.312,0.352-0.822,0-1.133c-0.352-0.313-0.928-0.313-1.28,0l-6.464,5.867L6.544,5.234c-0.352-0.313-0.928-0.313-1.28,0
		c-0.353,0.312-0.353,0.822,0,1.133L12.192,12.531z"/>
	<path opacity="0.5" fill="#38acff" d="M19.456,12.365l-6.464,5.867l-6.448-5.867c-0.352-0.312-0.928-0.312-1.28,0
		c-0.353,0.312-0.353,0.822,0,1.134l6.927,6.164c0.224,0.171,0.496,0.369,0.784,0.327c0.289,0.056,0.592-0.129,0.815-0.327
		l6.945-6.164c0.352-0.312,0.352-0.822,0-1.134C20.385,12.054,19.809,12.054,19.456,12.365z"/>
</g>
</svg>
