<?xml version="1.0" encoding="utf-8"?>
<!-- Generator: Adobe Illustrator 16.0.0, SVG Export Plug-In . SVG Version: 6.00 Build 0)  -->
<!DOCTYPE svg PUBLIC "-//W3C//DTD SVG 1.1//EN" "http://www.w3.org/Graphics/SVG/1.1/DTD/svg11.dtd">
<svg version="1.1" id="图层_1" xmlns="http://www.w3.org/2000/svg" xmlns:xlink="http://www.w3.org/1999/xlink" x="0px" y="0px"
	 width="46px" height="46px" viewBox="0 0 46 46" enable-background="new 0 0 46 46" xml:space="preserve">
<path fill="#3696FB" d="M42,34c0,4.418-3.582,8-8,8H12c-4.418,0-8-3.582-8-8V12c0-4.419,3.582-8,8-8h22c4.418,0,8,3.581,8,8V34z"/>
<g>
	<g>
		<defs>
			<rect id="SVGID_1_" x="13.41" y="11.556" width="19.18" height="22.889"/>
		</defs>
		<clipPath id="SVGID_2_">
			<use xlink:href="#SVGID_1_"  overflow="visible"/>
		</clipPath>
		<path clip-path="url(#SVGID_2_)" fill="#FFFFFF" d="M22.038,14.553l-8.484,14.716c-0.096,0.145-0.144,0.336-0.144,0.479
			l0.048,3.738c0,0.72,0.815,1.151,1.438,0.815l3.26-1.821c0.144-0.096,0.288-0.192,0.383-0.336l8.485-14.716L22.038,14.553z
			 M27.502,16.566l0.959-1.63c0.289-0.479,0.096-1.055-0.336-1.294l-3.307-1.917c-0.479-0.288-1.103-0.144-1.342,0.335l-0.911,1.63
			L27.502,16.566z M27.502,16.566"/>
	</g>
	<path fill="#FFFFFF" d="M22.997,31.569c0,0.527,0.432,0.959,0.958,0.959h7.67c0.527,0,0.959-0.432,0.959-0.959
		s-0.432-0.958-0.959-0.958h-7.67C23.428,30.611,22.997,31.042,22.997,31.569L22.997,31.569z M25.873,27.734
		c0,0.527,0.432,0.959,0.959,0.959h4.793c0.527,0,0.959-0.432,0.959-0.959c0-0.526-0.432-0.958-0.959-0.958h-4.793
		C26.305,26.776,25.873,27.208,25.873,27.734L25.873,27.734z M25.873,27.734"/>
</g>
</svg>
