<?xml version="1.0" encoding="utf-8"?>
<!-- Generator: Adobe Illustrator 17.0.0, SVG Export Plug-In . SVG Version: 6.00 Build 0)  -->
<!DOCTYPE svg PUBLIC "-//W3C//DTD SVG 1.1//EN" "http://www.w3.org/Graphics/SVG/1.1/DTD/svg11.dtd">
<svg version="1.1" id="图层_1" xmlns="http://www.w3.org/2000/svg" xmlns:xlink="http://www.w3.org/1999/xlink" x="0px" y="0px"
	 width="120px" height="80px" viewBox="0 0 120 80" enable-background="new 0 0 120 80" xml:space="preserve">
<path fill="#C3C7CE" d="M88.839,31.766c0.014-0.719-0.37-1.57-1.057-2.263L61.599,11.697c-1.08-1.091-2.613-0.749-3.344-0.011
	L31.948,29.343C31.35,29.946,31,31.571,31,32.743v33.451C31,67.743,32.254,69,33.802,69H51V53.564c0-5.425,3.842-9.823,9-9.823
	s9,4.398,9,9.823V69h17.105C87.652,69,89,67.743,89,66.193V32.515C89,32.254,88.906,32.006,88.839,31.766z"/>
</svg>
