<?xml version="1.0" encoding="utf-8"?>
<!-- Generator: Adobe Illustrator 15.0.0, SVG Export Plug-In . SVG Version: 6.00 Build 0)  -->
<!DOCTYPE svg PUBLIC "-//W3C//DTD SVG 1.1//EN" "http://www.w3.org/Graphics/SVG/1.1/DTD/svg11.dtd">
<svg version="1.1" id="图层_1" xmlns="http://www.w3.org/2000/svg" xmlns:xlink="http://www.w3.org/1999/xlink" x="0px" y="0px"
	 width="50px" height="50px" viewBox="0 0 50 50" enable-background="new 0 0 50 50" xml:space="preserve">
<g>
	<defs>
		<rect id="SVGID_1_" x="4" y="4" width="42" height="42"/>
	</defs>
	<clipPath id="SVGID_2_">
		<use xlink:href="#SVGID_1_"  overflow="visible"/>
	</clipPath>
	<path clip-path="url(#SVGID_2_)" fill="#999999" d="M43,4H7C5.343,4,4,5.343,4,7v27c0,1.657,1.343,3,3,3h9v9l15.057-9H43
		c1.657,0,3-1.343,3-3V7C46,5.343,44.657,4,43,4 M25,17.875c1.726,0,3.125,1.399,3.125,3.125S26.726,24.125,25,24.125
		c-1.726,0-3.125-1.399-3.125-3.125S23.274,17.875,25,17.875 M10.875,21c0-1.726,1.399-3.125,3.125-3.125s3.125,1.399,3.125,3.125
		S15.726,24.125,14,24.125S10.875,22.726,10.875,21 M36,24.125c-1.726,0-3.125-1.399-3.125-3.125s1.399-3.125,3.125-3.125
		s3.125,1.399,3.125,3.125S37.726,24.125,36,24.125"/>
</g>
</svg>
