<?xml version="1.0" encoding="utf-8"?>
<!-- Generator: Adobe Illustrator 15.0.0, SVG Export Plug-In . SVG Version: 6.00 Build 0)  -->
<!DOCTYPE svg PUBLIC "-//W3C//DTD SVG 1.1//EN" "http://www.w3.org/Graphics/SVG/1.1/DTD/svg11.dtd">
<svg version="1.1" id="图层_1" xmlns="http://www.w3.org/2000/svg" xmlns:xlink="http://www.w3.org/1999/xlink" x="0px" y="0px"
	 width="48px" height="48px" viewBox="0 0 48 48" enable-background="new 0 0 48 48" xml:space="preserve">
<g>
	<g>
		<path fill="#FFB230" d="M24.6,37.601c-7.731,0-14-6.271-14-14.001c0-7.731,6.268-14,14-14c7.73,0,14.001,6.268,14.001,14
			C38.601,31.33,32.33,37.601,24.6,37.601L24.6,37.601z M23.432,16.596v10.508c0,0.644,0.523,1.162,1.167,1.162
			c0.647,0,1.165-0.521,1.165-1.162V16.596c0-0.309-0.123-0.605-0.341-0.823c-0.219-0.218-0.516-0.34-0.824-0.34
			C23.951,15.433,23.432,15.954,23.432,16.596L23.432,16.596z M24.6,32.933c0.417,0,0.803-0.223,1.011-0.584
			c0.206-0.362,0.206-0.805,0-1.166c-0.208-0.361-0.594-0.584-1.011-0.584c-0.644,0-1.166,0.523-1.166,1.167
			S23.956,32.933,24.6,32.933L24.6,32.933z M24.6,32.933"/>
	</g>
</g>
</svg>
