<?xml version="1.0" encoding="utf-8"?>
<!-- Generator: Adobe Illustrator 16.0.0, SVG Export Plug-In . SVG Version: 6.00 Build 0)  -->
<!DOCTYPE svg PUBLIC "-//W3C//DTD SVG 1.1//EN" "http://www.w3.org/Graphics/SVG/1.1/DTD/svg11.dtd">
<svg version="1.1" id="图层_1" xmlns="http://www.w3.org/2000/svg" xmlns:xlink="http://www.w3.org/1999/xlink" x="0px" y="0px"
	 width="46px" height="46px" viewBox="0 0 46 46" enable-background="new 0 0 46 46" xml:space="preserve">
<path fill="#3696FB" d="M42,34c0,4.418-3.582,8-8,8H12c-4.418,0-8-3.582-8-8V12c0-4.419,3.582-8,8-8h22c4.418,0,8,3.581,8,8V34z"/>
<g>
	<path fill="#FFFFFF" d="M33.734,33.014h-0.721v-8.578c0-0.809-0.647-1.436-1.443-1.436h-2.834c-0.811,0-1.444,0.642-1.444,1.436
		v8.578h-1.431V12.997c0-0.8-0.647-1.441-1.444-1.441h-2.834c-0.811,0-1.444,0.646-1.444,1.441v20.017h-1.43V18.703
		c0-0.788-0.646-1.425-1.444-1.425H14.43c-0.81,0-1.443,0.638-1.443,1.425v14.311h-0.722c-0.386,0-0.709,0.321-0.709,0.716
		c0,0.384,0.317,0.715,0.709,0.715h21.469c0.389,0,0.711-0.321,0.711-0.715C34.444,33.346,34.128,33.014,33.734,33.014
		L33.734,33.014z M33.734,33.014"/>
</g>
</svg>
