<?xml version="1.0" encoding="utf-8"?>
<!-- Generator: Adobe Illustrator 15.0.0, SVG Export Plug-In . SVG Version: 6.00 Build 0)  -->
<!DOCTYPE svg PUBLIC "-//W3C//DTD SVG 1.1//EN" "http://www.w3.org/Graphics/SVG/1.1/DTD/svg11.dtd">
<svg version="1.1" id="图层_1" xmlns="http://www.w3.org/2000/svg" xmlns:xlink="http://www.w3.org/1999/xlink" x="0px" y="0px"
	 width="66px" height="66px" viewBox="0 0 66 66" enable-background="new 0 0 66 66" xml:space="preserve">
<path fill="#3896F9" d="M62,57c0,2.762-2.238,5-5,5H9c-2.761,0-5-2.238-5-5V9c0-2.761,2.239-5,5-5h48c2.762,0,5,2.239,5,5V57z"/>
<g>
	<defs>
		<rect id="SVGID_1_" x="16.5" y="14" width="33" height="38"/>
	</defs>
	<clipPath id="SVGID_2_">
		<use xlink:href="#SVGID_1_"  overflow="visible"/>
	</clipPath>
	<path clip-path="url(#SVGID_2_)" fill="#FFFFFF" d="M24.031,28.057c-0.677,0-1.227-0.516-1.269-1.204
		c-0.254-4.213,0.719-7.522,2.792-9.758c2.454-2.665,5.712-3.052,7.446-3.052c0.719,0,1.269,0.559,1.269,1.29
		c0,0.73-0.55,1.289-1.269,1.289c-1.311,0-3.807,0.301-5.584,2.236c-1.608,1.719-2.327,4.384-2.116,7.866
		c0.042,0.731-0.508,1.333-1.184,1.376C24.073,28.057,24.031,28.057,24.031,28.057"/>
	<path clip-path="url(#SVGID_2_)" fill="#FFFFFF" d="M42.012,28.057h-0.085c-0.72-0.043-1.227-0.645-1.185-1.376
		c0.212-3.482-0.508-6.147-2.115-7.866c-1.819-1.935-4.273-2.236-5.627-2.236c-0.72,0-1.27-0.559-1.27-1.289
		c0-0.731,0.55-1.29,1.27-1.29c1.734,0,4.992,0.387,7.446,3.052c2.115,2.279,3.046,5.545,2.792,9.758
		C43.238,27.541,42.646,28.057,42.012,28.057"/>
	<path clip-path="url(#SVGID_2_)" fill="#FFFFFF" d="M47.808,26.767H18.192c-0.931,0-1.692,0.774-1.692,1.719V50.28
		c0,0.946,0.761,1.72,1.692,1.72h29.615c0.931,0,1.692-0.773,1.692-1.72V28.486C49.5,27.541,48.738,26.767,47.808,26.767
		 M34.27,38.976v6.404c0,0.731-0.551,1.29-1.27,1.29h-0.042c-0.72,0-1.27-0.559-1.27-1.29v-6.404
		c-0.973-0.474-1.607-1.463-1.607-2.622c0-1.635,1.311-2.924,2.877-2.924c1.565,0,2.876,1.332,2.876,2.924
		C35.877,37.513,35.242,38.502,34.27,38.976"/>
</g>
</svg>
