<?xml version="1.0" encoding="utf-8"?>
<!-- Generator: Adobe Illustrator 15.0.0, SVG Export Plug-In . SVG Version: 6.00 Build 0)  -->
<!DOCTYPE svg PUBLIC "-//W3C//DTD SVG 1.1//EN" "http://www.w3.org/Graphics/SVG/1.1/DTD/svg11.dtd">
<svg version="1.1" id="图层_1" xmlns="http://www.w3.org/2000/svg" xmlns:xlink="http://www.w3.org/1999/xlink" x="0px" y="0px"
	 width="66px" height="66px" viewBox="0 0 66 66" enable-background="new 0 0 66 66" xml:space="preserve">
<path fill="#11BB84" d="M62,57c0,2.762-2.238,5-5,5H9c-2.761,0-5-2.238-5-5V9c0-2.762,2.239-5,5-5h48c2.762,0,5,2.238,5,5V57z"/>
<g>
	<defs>
		<rect id="SVGID_1_" x="17" y="14" width="32" height="38"/>
	</defs>
	<clipPath id="SVGID_2_">
		<use xlink:href="#SVGID_1_"  overflow="visible"/>
	</clipPath>
	<path clip-path="url(#SVGID_2_)" fill="#FFFFFF" d="M33.044,33.607c4.909,0,8.942-5.9,8.942-10.758
		c0-4.858-4.033-8.849-8.942-8.849c-4.91,0-8.943,3.991-8.943,8.849C24.101,27.794,28.134,33.607,33.044,33.607 M17,45.06
		c0-2.43,1.754-5.206,3.945-6.247l3.945-1.995l2.981,9.457c0,0,0.088,0.867,1.578,0.867c1.491,0,1.491-0.867,1.491-0.867v-7.548
		c0,0,0.087-1.909,2.016-1.909c1.929,0,1.929,1.909,1.929,1.909v7.548c0,0,0.526,1.041,1.753,1.041c1.229,0,1.403-1.041,1.403-1.041
		l2.981-9.457l5.874,2.863C48.036,40.201,49,41.763,49,42.978v7.98C49,51.566,48.562,52,47.948,52H18.052
		C17.438,52,17,51.566,17,50.958V45.06z"/>
</g>
</svg>
