<?xml version="1.0" encoding="utf-8"?>
<!-- Generator: Adobe Illustrator 16.0.0, SVG Export Plug-In . SVG Version: 6.00 Build 0)  -->
<!DOCTYPE svg PUBLIC "-//W3C//DTD SVG 1.1//EN" "http://www.w3.org/Graphics/SVG/1.1/DTD/svg11.dtd">
<svg version="1.1" id="图层_1" xmlns="http://www.w3.org/2000/svg" xmlns:xlink="http://www.w3.org/1999/xlink" x="0px" y="0px"
	 width="46px" height="46px" viewBox="0 0 46 46" enable-background="new 0 0 46 46" xml:space="preserve">
<path fill="#DCB674" d="M42,34c0,4.418-3.582,8-8,8H12c-4.418,0-8-3.582-8-8V12c0-4.419,3.582-8,8-8h22c4.418,0,8,3.581,8,8V34z"/>
<g>
	<g>
		<path fill="#FFFFFF" d="M19.93,16.988h5.822c1.802,0,3.176-3.907,3.176-3.907c0-1.17-0.116-2.056-2.118-2.118
			c-1.999-0.063-2.478,1.399-3.916,1.399c-1.473,0-2.209-1.149-4.022-1.399c-1.813-0.25-2.117,0.948-2.117,2.118
			C16.754,13.082,18.128,16.988,19.93,16.988L19.93,16.988z M26.07,18.196h-6.14c-6.799,0-8.468,13.356-8.468,13.356
			c0,1.755,1.422,3.517,3.176,3.517h16.725c1.754,0,3.176-1.762,3.176-3.517C34.538,31.553,32.868,18.196,26.07,18.196L26.07,18.196
			z M26.767,28.461c0.41,0,0.742,0.334,0.742,0.743s-0.332,0.741-0.742,0.741h-3.01v1.947c0,0.409-0.332,0.741-0.741,0.741
			c-0.41,0-0.741-0.332-0.741-0.741v-1.947h-3.03c-0.41,0-0.741-0.332-0.741-0.741s0.332-0.743,0.741-0.743h3.03V27.52h-3.03
			c-0.41,0-0.741-0.332-0.741-0.742c0-0.409,0.332-0.742,0.741-0.742h2.048l-2.097-3.727c-0.205-0.355-0.083-0.809,0.271-1.013
			c0.355-0.205,0.808-0.084,1.013,0.271l2.525,4.469h0.127l2.525-4.469c0.204-0.354,0.657-0.476,1.012-0.271
			c0.354,0.205,0.477,0.658,0.271,1.013l-2.097,3.727h1.923c0.41,0,0.742,0.333,0.742,0.742c0,0.41-0.332,0.742-0.742,0.742h-3.01
			v0.941H26.767z M26.767,28.461"/>
	</g>
</g>
</svg>
