<?xml version="1.0" encoding="utf-8"?>
<!-- Generator: Adobe Illustrator 16.0.0, SVG Export Plug-In . SVG Version: 6.00 Build 0)  -->
<!DOCTYPE svg PUBLIC "-//W3C//DTD SVG 1.1//EN" "http://www.w3.org/Graphics/SVG/1.1/DTD/svg11.dtd">
<svg version="1.1" id="图层_1" xmlns="http://www.w3.org/2000/svg" xmlns:xlink="http://www.w3.org/1999/xlink" x="0px" y="0px"
	 width="46px" height="46px" viewBox="0 0 46 46" enable-background="new 0 0 46 46" xml:space="preserve">
<path fill="#3696FB" d="M42,34c0,4.418-3.582,8-8,8H12c-4.418,0-8-3.582-8-8V12c0-4.419,3.582-8,8-8h22c4.418,0,8,3.581,8,8V34z"/>
<g>
	<path fill="#FFFFFF" d="M22.972,10.836l10.954,5.81v2.336H12.074v-2.336L22.972,10.836z M28.152,21.262h3.453v8.146h-3.453V21.262
		L28.152,21.262z M12.074,35.164v-3.475h21.851v3.475H12.074z M21.245,21.262h3.452v8.146h-3.452V21.262z M14.339,21.262h3.453
		v8.146h-3.453V21.262L14.339,21.262z M14.339,21.262"/>
</g>
</svg>
