<?xml version="1.0" encoding="utf-8"?>
<!-- Generator: Adobe Illustrator 15.0.0, SVG Export Plug-In . SVG Version: 6.00 Build 0)  -->
<!DOCTYPE svg PUBLIC "-//W3C//DTD SVG 1.1//EN" "http://www.w3.org/Graphics/SVG/1.1/DTD/svg11.dtd">
<svg version="1.1" id="图层_1" xmlns="http://www.w3.org/2000/svg" xmlns:xlink="http://www.w3.org/1999/xlink" x="0px" y="0px"
	 width="112px" height="112px" viewBox="0 0 112 112" enable-background="new 0 0 112 112" xml:space="preserve">
<circle fill="#FFFFFF" cx="56" cy="56" r="52"/>
<g>
	<g>
		<path fill="#FF6E00" d="M82.321,80.002c0,1.271-1.03,2.301-2.3,2.301H31.979c-1.27,0-2.3-1.03-2.3-2.301c0-1.27,1.03-2.3,2.3-2.3
			h48.043C81.291,77.702,82.321,78.732,82.321,80.002L82.321,80.002z M55.995,73.517c-1.271,0-2.3-1.03-2.3-2.301V31.998
			c0-1.271,1.03-2.301,2.3-2.301s2.3,1.03,2.3,2.301v39.218C58.295,72.486,57.266,73.517,55.995,73.517L55.995,73.517z
			 M57.621,72.827c-0.898,0.898-2.354,0.898-3.252,0L37.106,55.565c-0.898-0.898-0.898-2.354,0-3.253
			c0.898-0.898,2.354-0.898,3.252,0l17.262,17.263C58.52,70.473,58.52,71.929,57.621,72.827L57.621,72.827z M54.369,72.827
			c-0.898-0.898-0.898-2.354,0-3.252l17.262-17.263c0.898-0.898,2.354-0.898,3.253,0c0.897,0.898,0.897,2.354,0,3.253L57.621,72.827
			C56.723,73.726,55.267,73.726,54.369,72.827L54.369,72.827z M54.369,72.827"/>
	</g>
</g>
</svg>
