<?xml version="1.0" encoding="utf-8"?>
<!-- Generator: Adobe Illustrator 15.0.0, SVG Export Plug-In . SVG Version: 6.00 Build 0)  -->
<!DOCTYPE svg PUBLIC "-//W3C//DTD SVG 1.1//EN" "http://www.w3.org/Graphics/SVG/1.1/DTD/svg11.dtd">
<svg version="1.1" id="图层_1" xmlns="http://www.w3.org/2000/svg" xmlns:xlink="http://www.w3.org/1999/xlink" x="0px" y="0px"
	 width="66px" height="66px" viewBox="0 0 66 66" enable-background="new 0 0 66 66" xml:space="preserve">
<path fill="#576994" d="M62,57c0,2.762-2.238,5-5,5H9c-2.761,0-5-2.238-5-5V9c0-2.761,2.239-5,5-5h48c2.762,0,5,2.239,5,5V57z"/>
<g>
	<defs>
		<rect id="SVGID_1_" x="14" y="14" width="38" height="38"/>
	</defs>
	<clipPath id="SVGID_2_">
		<use xlink:href="#SVGID_1_"  overflow="visible"/>
	</clipPath>
	<path clip-path="url(#SVGID_2_)" fill="#FFFFFF" d="M48.496,35.016l2.903-1.861c0.462-0.296,0.689-0.857,0.568-1.4l-1.422-6.387
		c-0.12-0.543-0.564-0.948-1.104-1.01l-3.411-0.388c-0.338-0.039-0.647-0.214-0.859-0.486l-0.57-0.734
		c-0.212-0.272-0.309-0.619-0.27-0.964l0.392-3.485c0.063-0.553-0.225-1.087-0.715-1.329l-5.765-2.842
		c-0.49-0.241-1.076-0.139-1.459,0.255l-2.422,2.488c-0.24,0.246-0.565,0.385-0.905,0.385h-0.914c-0.34,0-0.665-0.139-0.905-0.385
		l-2.422-2.488c-0.384-0.394-0.97-0.496-1.46-0.255l-5.763,2.842c-0.49,0.242-0.777,0.775-0.715,1.329l0.39,3.488
		c0.039,0.345-0.058,0.692-0.27,0.964l-0.569,0.731c-0.211,0.272-0.52,0.447-0.858,0.485l-3.412,0.389
		c-0.541,0.062-0.984,0.467-1.105,1.01l-1.423,6.387c-0.121,0.543,0.107,1.104,0.568,1.4l2.906,1.862
		c0.288,0.184,0.492,0.479,0.568,0.817l0.204,0.914c0.075,0.339,0.016,0.695-0.165,0.99l-1.83,2.968
		c-0.29,0.472-0.257,1.078,0.082,1.515l3.991,5.123c0.339,0.435,0.91,0.603,1.423,0.418l3.236-1.165
		c0.32-0.115,0.672-0.096,0.978,0.055l0.823,0.405c0.306,0.15,0.541,0.421,0.653,0.749l1.126,3.315
		C28.774,51.647,29.258,52,29.802,52H36.2c0.545,0,1.028-0.353,1.208-0.879l1.126-3.315c0.111-0.329,0.347-0.599,0.652-0.749
		l0.823-0.405c0.306-0.151,0.658-0.17,0.979-0.055l3.235,1.165c0.514,0.185,1.084,0.017,1.423-0.418l3.991-5.123
		c0.339-0.437,0.372-1.043,0.081-1.515l-1.83-2.969c-0.181-0.294-0.24-0.65-0.165-0.989l0.203-0.913
		C48.003,35.495,48.208,35.2,48.496,35.016 M34.033,39.086c-1.97,0.342-3.98-0.315-5.392-1.763
		c-1.413-1.447-2.053-3.505-1.719-5.522c0.416-2.615,2.473-4.726,5.026-5.158c1.976-0.348,3.995,0.308,5.412,1.761
		c1.417,1.452,2.056,3.519,1.714,5.541C38.648,36.559,36.586,38.663,34.033,39.086"/>
</g>
</svg>
