<?xml version="1.0" encoding="utf-8"?>
<!-- Generator: Adobe Illustrator 15.0.0, SVG Export Plug-In . SVG Version: 6.00 Build 0)  -->
<!DOCTYPE svg PUBLIC "-//W3C//DTD SVG 1.1//EN" "http://www.w3.org/Graphics/SVG/1.1/DTD/svg11.dtd">
<svg version="1.1" id="图层_1" xmlns="http://www.w3.org/2000/svg" xmlns:xlink="http://www.w3.org/1999/xlink" x="0px" y="0px"
	 width="92px" height="92px" viewBox="0 0 92 92" enable-background="new 0 0 92 92" xml:space="preserve">
<g>
	<path fill="#FFB527" d="M88,76c0,6.627-5.373,12-12,12H16C9.373,88,4,82.627,4,76V16C4,9.372,9.373,4,16,4h60
		c6.627,0,12,5.372,12,12V76z"/>
	<g>
		<path fill="#FFFFFF" d="M38.709,63.661c-0.024,0.248-0.038,0.498-0.038,0.753c0,4.047,3.281,7.327,7.329,7.327
			c4.046,0,7.328-3.28,7.328-7.327c0-0.255-0.014-0.505-0.037-0.753H38.709z"/>
		<path fill="#FFFFFF" d="M62.16,50.436V39.799c0-6.724-4.111-12.484-9.951-14.918c-0.803-2.673-3.275-4.622-6.208-4.622
			c-2.934,0-5.409,1.949-6.209,4.622c-5.843,2.434-9.95,8.194-9.95,14.918v10.637c-3.192,2.823-5.647,6.461-7.021,10.596h46.36
			C67.807,56.896,65.352,53.259,62.16,50.436z"/>
	</g>
</g>
</svg>
