<?xml version="1.0" encoding="utf-8"?>
<!-- Generator: Adobe Illustrator 15.0.0, SVG Export Plug-In . SVG Version: 6.00 Build 0)  -->
<!DOCTYPE svg PUBLIC "-//W3C//DTD SVG 1.1//EN" "http://www.w3.org/Graphics/SVG/1.1/DTD/svg11.dtd">
<svg version="1.1" id="图层_1" xmlns="http://www.w3.org/2000/svg" xmlns:xlink="http://www.w3.org/1999/xlink" x="0px" y="0px"
	 width="48px" height="48px" viewBox="0 0 48 48" enable-background="new 0 0 48 48" xml:space="preserve">
<g>
	<g>
		<path fill="#3396FB" d="M11.054,34.666h7.528V22.857l-2.061-1.414L11.054,26V34.666z M20.35,34.666h7.528V22.92l-3.651,2.983
			l-3.893-2.063v10.825H20.35z M29.646,21.523v13.143h7.526V21.619l-3.213-4.127L29.646,21.523z M29.646,21.523"/>
		<path fill="#3396FB" d="M12.304,22.698l4.087-3.35l7.803,4.667l9.264-8.54c0.033-0.032,0.064-0.064,0.08-0.095l1.559,1.539
			L37.61,10l-7.186,2.27l1.719,1.714c-0.017,0.016-0.048,0.032-0.064,0.048l-8.144,7.508l-7.738-4.603l-5.208,4.238
			c-0.438,0.349-0.486,0.985-0.13,1.397C11.232,22.999,11.866,23.047,12.304,22.698L12.304,22.698z M36.994,36.031H11.006
			c-0.552,0-1.006,0.444-1.006,0.984S10.454,38,11.006,38h25.988C37.546,38,38,37.556,38,37.016S37.546,36.031,36.994,36.031
			L36.994,36.031z M36.994,36.031"/>
	</g>
</g>
</svg>
